<?xml version="1.0" encoding="iso-8859-1"?>
<!-- Uploaded to: SVG Repo, www.svgrepo.com, Generator: SVG Repo Mixer Tools -->
<svg height="800px" width="800px" version="1.1" id="Layer_1" xmlns="http://www.w3.org/2000/svg" xmlns:xlink="http://www.w3.org/1999/xlink" 
	 viewBox="0 0 512.527 512.527" xml:space="preserve">
<g transform="translate(1 1)">
	<path style="fill:#1CD759;" d="M84.579,101.927h68.267c0-33.28-26.453-59.733-59.733-59.733s-59.733,26.453-59.733,59.733
		s26.453,59.733,59.733,59.733c13.653,0,26.453-5.12,36.693-12.8L84.579,101.927z"/>
	<path style="fill:#FFDD09;" d="M383.246,502.993h-204.8l36.693-14.507c29.013-11.947,48.64-40.107,48.64-71.68v-93.013h34.133
		v93.013c0,31.573,18.773,59.733,48.64,71.68L383.246,502.993z"/>
	<path style="fill:#FD9808;" d="M84.579,101.927l155.307,162.987c15.36,16.213,23.893,36.693,23.893,58.88h34.133
		c0-22.187,8.533-42.667,23.893-58.88l155.307-162.987H84.579z"/>
	<path style="fill:#FFDD09;" d="M93.113,101.927l149.333,162.987c13.653,16.213,21.333,36.693,21.333,58.88h19.627
		c0-22.187,7.68-42.667,21.333-58.88l138.24-162.987H93.113z"/>
	<path style="fill:#1CD759;" d="M357.646,195.793c-25.6,23.04-61.44,23.04-76.8,0c-17.92-23.04-50.347-23.04-72.533,0
		c-6.827,5.973-14.507,11.093-21.333,13.653l52.907,55.467c15.36,16.213,23.893,36.693,23.893,58.88h34.133
		c0-22.187,8.533-42.667,23.893-58.88l81.92-86.187C388.366,177.873,370.446,182.993,357.646,195.793"/>
	<path d="M383.246,511.527h-204.8c-4.267,0-7.68-2.56-8.533-6.827c-0.853-4.267,1.707-7.68,5.12-9.387l36.693-14.507
		c26.453-10.24,42.667-34.987,42.667-63.147v-93.867c0-5.12,3.413-8.533,8.533-8.533h34.133c5.12,0,8.533,3.413,8.533,8.533v93.013
		c0,28.16,17.067,52.907,42.667,63.147l36.693,14.507c3.413,1.707,5.973,5.12,5.12,9.387
		C390.926,508.967,387.513,511.527,383.246,511.527z M222.819,494.46h116.907c-30.72-13.653-49.493-43.52-49.493-77.653v-84.48
		h-17.067v84.48C272.313,450.94,252.686,480.807,222.819,494.46z"/>
	<path d="M297.913,332.327h-34.133c-5.12,0-8.533-3.413-8.533-8.533c0-19.627-7.68-38.4-21.333-52.907L78.606,107.9
		c-2.56-2.56-3.413-5.973-1.707-9.387c0.853-3.413,4.267-5.12,7.68-5.12h392.533c3.413,0,6.827,1.707,7.68,5.12
		c1.707,3.413,0.853,6.827-1.707,9.387L327.779,270.887c-13.653,14.507-21.333,33.28-21.333,52.907
		C306.446,328.913,303.033,332.327,297.913,332.327z M272.313,315.26h17.92c1.707-21.333,11.093-40.96,25.6-56.32l141.653-148.48
		h-353.28l142.507,148.48C261.219,274.3,269.753,293.927,272.313,315.26z"/>
	<path d="M297.913,255.527c-0.853,0-1.707,0-2.56-0.853c-4.267-1.707-6.827-6.827-5.12-11.093l76.8-213.333
		c0.853-2.56,2.56-4.267,5.973-5.12l85.333-25.6c4.267-1.707,9.387,0.853,10.24,5.973c1.707,4.267-0.853,9.387-5.973,10.24
		l-81.067,24.747l-75.093,209.067C304.739,252.967,301.326,255.527,297.913,255.527z"/>
	<path d="M297.913,332.327h-34.133c-5.12,0-8.533-3.413-8.533-8.533c0-19.627-7.68-38.4-21.333-52.907l-52.907-55.467
		c-1.707-1.707-2.56-5.12-2.56-7.68c0.853-2.56,2.56-5.12,5.12-5.973c6.827-2.56,12.8-6.827,18.773-11.947
		c12.8-12.8,30.72-20.48,46.933-19.627c15.36,0.853,28.16,8.533,37.547,20.48c5.973,9.387,15.36,12.8,22.187,13.653
		c13.653,1.707,29.867-3.413,41.813-14.507c14.507-13.653,33.28-20.48,52.053-18.773c3.413,0,5.973,2.56,6.827,5.12
		c0.853,3.413,0.853,6.827-1.707,8.533l-81.92,86.187c-11.947,14.507-19.627,33.28-19.627,52.907
		C306.446,328.913,303.033,332.327,297.913,332.327z M272.313,315.26h17.92c1.707-21.333,11.093-40.96,25.6-56.32l64.853-68.267
		c-5.973,2.56-11.947,5.973-17.067,11.093l0,0c-16.213,14.507-36.693,21.333-55.467,18.773c-14.507-1.707-26.453-9.387-34.133-20.48
		c-5.973-7.68-15.36-12.8-24.747-12.8c-11.947-0.853-24.747,4.267-34.133,14.507c-4.267,4.267-8.533,7.68-13.653,10.24
		l45.227,46.933C261.219,274.3,269.753,293.927,272.313,315.26z M357.646,195.793L357.646,195.793L357.646,195.793z"/>
	<path d="M93.113,170.193c-37.547,0-68.267-30.72-68.267-68.267S55.566,33.66,93.113,33.66s68.267,30.72,68.267,68.267
		c0,5.12-3.413,8.533-8.533,8.533h-48.64l31.573,32.427c1.707,1.707,2.56,4.267,2.56,6.827c0,2.56-1.707,4.267-3.413,5.973
		C122.979,165.073,108.473,170.193,93.113,170.193z M93.113,50.727c-28.16,0-51.2,23.04-51.2,51.2s23.04,51.2,51.2,51.2
		c8.533,0,16.213-1.707,23.04-5.973l-37.547-40.107c-2.56-1.707-3.413-5.12-1.707-8.533c0.853-3.413,4.267-5.12,7.68-5.12h58.88
		C139.193,69.5,118.713,50.727,93.113,50.727z"/>
</g>
</svg>